<svg width="120" height="120" viewBox="0 0 120 120" fill="none" xmlns="http://www.w3.org/2000/svg">
<mask id="mask0_2_1084" style="mask-type:alpha" maskUnits="userSpaceOnUse" x="0" y="0" width="120" height="120">
<rect width="120" height="120" fill="#D9D9D9"/>
</mask>
<g mask="url(#mask0_2_1084)">
<path d="M60 110C53.0833 110 46.5833 108.688 40.5 106.063C34.4167 103.438 29.125 99.8751 24.625 95.3751C20.125 90.8751 16.5625 85.5834 13.9375 79.5001C11.3125 73.4167 10 66.9167 10 60.0001C10 53.0834 11.3125 46.5834 13.9375 40.5001C16.5625 34.4167 20.125 29.1251 24.625 24.6251C29.125 20.1251 34.4167 16.5626 40.5 13.9376C46.5833 11.3126 53.0833 10.0001 60 10.0001C64 10.0001 67.8958 10.4584 71.6875 11.3751C75.4792 12.2917 79.125 13.6251 82.625 15.3751C83.875 16.0417 84.6875 17.0417 85.0625 18.3751C85.4375 19.7084 85.2083 20.9584 84.375 22.1251C83.5417 23.2917 82.4375 24.0417 81.0625 24.3751C79.6875 24.7084 78.3333 24.5417 77 23.8751C74.3333 22.6251 71.5625 21.6667 68.6875 21.0001C65.8125 20.3334 62.9167 20.0001 60 20.0001C48.9167 20.0001 39.4792 23.8959 31.6875 31.6876C23.8958 39.4792 20 48.9167 20 60.0001C20 71.0834 23.8958 80.5209 31.6875 88.3126C39.4792 96.1042 48.9167 100 60 100C71.0833 100 80.5208 96.1042 88.3125 88.3126C96.1042 80.5209 100 71.0834 100 60.0001C100 59.3334 99.9792 58.6876 99.9375 58.0626C99.8959 57.4376 99.8334 56.7917 99.75 56.1251C99.5834 54.7084 99.8542 53.3542 100.563 52.0626C101.271 50.7709 102.333 49.9167 103.75 49.5001C105.083 49.0834 106.333 49.2084 107.5 49.8751C108.667 50.5417 109.333 51.5417 109.5 52.8751C109.667 54.0417 109.792 55.2084 109.875 56.3751C109.958 57.5417 110 58.7501 110 60.0001C110 66.9167 108.688 73.4167 106.063 79.5001C103.438 85.5834 99.875 90.8751 95.375 95.3751C90.875 99.8751 85.5833 103.438 79.5 106.063C73.4167 108.688 66.9167 110 60 110ZM53 69.0001L99.5 22.3751C100.417 21.4584 101.563 20.9792 102.938 20.9376C104.313 20.8959 105.5 21.3751 106.5 22.3751C107.417 23.2917 107.875 24.4584 107.875 25.8751C107.875 27.2917 107.417 28.4584 106.5 29.3751L56.5 79.5001C55.5 80.5001 54.3333 81.0001 53 81.0001C51.6667 81.0001 50.5 80.5001 49.5 79.5001L35.25 65.2501C34.3333 64.3334 33.875 63.1667 33.875 61.7501C33.875 60.3334 34.3333 59.1667 35.25 58.2501C36.1667 57.3334 37.3333 56.8751 38.75 56.8751C40.1667 56.8751 41.3333 57.3334 42.25 58.2501L53 69.0001Z" fill="#895EC5"/>
</g>
</svg>
