<svg width="184" height="45" viewBox="0 0 184 45" fill="none" xmlns="http://www.w3.org/2000/svg">
<path d="M108.871 19.0406L106.306 11.3456C105.934 10.2253 105.218 9.25069 104.26 8.56033C103.303 7.86997 102.152 7.49895 100.971 7.5H83.875C82.6945 7.49895 81.5436 7.86997 80.586 8.56033C79.6284 9.25069 78.9127 10.2253 78.5406 11.3456L75.9756 19.0406C75.2935 19.326 74.711 19.8067 74.3013 20.4222C73.8917 21.0377 73.6731 21.7606 73.6731 22.5V31.875C73.6731 33.2588 74.4306 34.455 75.5481 35.1056V39.375C75.5481 39.8723 75.7456 40.3492 76.0973 40.7008C76.4489 41.0525 76.9258 41.25 77.4231 41.25H79.2981C79.7954 41.25 80.2723 41.0525 80.6239 40.7008C80.9756 40.3492 81.1731 39.8723 81.1731 39.375V35.625H103.673V39.375C103.673 39.8723 103.871 40.3492 104.222 40.7008C104.574 41.0525 105.051 41.25 105.548 41.25H107.423C107.92 41.25 108.397 41.0525 108.749 40.7008C109.101 40.3492 109.298 39.8723 109.298 39.375V35.1056C109.867 34.7794 110.34 34.309 110.669 33.7418C110.998 33.1747 111.172 32.5308 111.173 31.875V22.5C111.173 21.7606 110.955 21.0377 110.545 20.4222C110.135 19.8067 109.553 19.326 108.871 19.0406ZM83.875 11.25H100.969C101.777 11.25 102.494 11.7638 102.749 12.5325L104.822 18.75H80.0237L82.0956 12.5325C82.22 12.159 82.4588 11.8341 82.7782 11.6039C83.0976 11.3737 83.4813 11.2499 83.875 11.25ZM80.2356 30C79.8661 29.9999 79.5003 29.927 79.159 29.7855C78.8177 29.644 78.5076 29.4366 78.2465 29.1753C77.9853 28.914 77.7782 28.6037 77.6369 28.2624C77.4956 27.921 77.423 27.5551 77.4231 27.1856C77.4232 26.8162 77.4961 26.4503 77.6376 26.109C77.7791 25.7677 77.9865 25.4577 78.2478 25.1965C78.5091 24.9353 78.8194 24.7282 79.1607 24.5869C79.5021 24.4457 79.868 24.373 80.2375 24.3731C80.9836 24.3734 81.6992 24.67 82.2266 25.1978C82.754 25.7256 83.0502 26.4413 83.05 27.1875C83.0497 27.9337 82.7531 28.6492 82.2253 29.1766C81.6975 29.7041 80.9818 30.0002 80.2356 30ZM104.611 30C104.241 29.9999 103.875 29.927 103.534 29.7855C103.193 29.644 102.883 29.4366 102.621 29.1753C102.36 28.914 102.153 28.6037 102.012 28.2624C101.871 27.921 101.798 27.5551 101.798 27.1856C101.798 26.8162 101.871 26.4503 102.013 26.109C102.154 25.7677 102.361 25.4577 102.623 25.1965C102.884 24.9353 103.194 24.7282 103.536 24.5869C103.877 24.4457 104.243 24.373 104.612 24.3731C105.359 24.3734 106.074 24.67 106.602 25.1978C107.129 25.7256 107.425 26.4413 107.425 27.1875C107.425 27.9337 107.128 28.6492 106.6 29.1766C106.072 29.7041 105.357 30.0002 104.611 30Z" fill="#C19AF7"/>
<path d="M36.6094 18.0485L23.3989 5.57827L23.3724 5.55348C22.7653 4.99788 21.9722 4.68974 21.1492 4.68974C20.3262 4.68974 19.5331 4.99788 18.926 5.55348L18.8979 5.57827L5.6907 18.0485C5.35577 18.3584 5.08839 18.734 4.90529 19.152C4.72219 19.5699 4.62731 20.0212 4.62659 20.4774V35.7534C4.62659 36.6298 4.97476 37.4704 5.59451 38.0901C6.21426 38.7099 7.05482 39.058 7.93127 39.058H15.8625C16.739 39.058 17.5795 38.7099 18.1993 38.0901C18.819 37.4704 19.1672 36.6298 19.1672 35.7534V28.483H23.1328V35.7534C23.1328 36.6298 23.481 37.4704 24.1008 38.0901C24.7205 38.7099 25.5611 39.058 26.4375 39.058H34.3688C35.2452 39.058 36.0858 38.7099 36.7055 38.0901C37.3253 37.4704 37.6735 36.6298 37.6735 35.7534V20.4774C37.6727 20.0212 37.5779 19.5699 37.3948 19.152C37.2117 18.734 36.9443 18.3584 36.6094 18.0485ZM33.7078 35.0924H27.0985V27.8221C27.0985 27.3881 27.013 26.9584 26.8469 26.5575C26.6808 26.1565 26.4374 25.7922 26.1305 25.4853C25.8237 25.1785 25.4594 24.9351 25.0584 24.769C24.6575 24.6029 24.2278 24.5174 23.7938 24.5174H18.5063C17.6298 24.5174 16.7893 24.8656 16.1695 25.4853C15.5498 26.1051 15.2016 26.9457 15.2016 27.8221V35.0924H8.59221V20.7633L21.15 8.90774L33.7078 20.7633V35.0924Z" fill="#C19AF7"/>
<path d="M175.225 18.0206C175.007 18.0206 174.07 18.027 173.732 18.0454L169.111 18.1669L158.456 5.22368H153.433L159.398 18.3893L151.616 18.5044L148.074 14.1815H143.906L145.555 21.7141C145.567 21.7572 145.581 21.7996 145.597 21.8412C145.598 21.8451 145.598 21.8493 145.597 21.8532C145.581 21.8945 145.566 21.9367 145.555 21.9796L143.884 29.5377H148.025L151.66 25.1388L159.4 25.3124L153.432 38.4956H158.471L169.108 25.5587L173.729 25.6819C174.072 25.7003 175.008 25.7067 175.221 25.7067C177.168 25.7067 178.762 25.4395 179.957 24.9117C181.983 24.0191 182.286 22.6162 182.286 21.8596C182.286 19.4554 179.646 18.0206 175.225 18.0206Z" fill="#C19AF7"/>
</svg>
