<svg width="195" height="65" viewBox="0 0 195 65" fill="none" xmlns="http://www.w3.org/2000/svg">
<rect width="195" height="65" fill="#1E1E1E"/>
<g clip-path="url(#clip0_0_1)">
<rect width="1440" height="1024" transform="translate(-100 -19)" fill="white"/>
<rect x="-100" y="-19" width="1440" height="103" fill="#EDEDED"/>
<path d="M53.616 33.9504C47.005 38.824 30.8871 50.7022 24.1056 55.6996C9.39321 56.0812 20.0945 44.3674 20.0945 44.3674C22.0245 43.0844 49.1791 24.9159 51.9609 23.0582L53.616 33.9504Z" fill="url(#paint0_linear_0_1)"/>
<path style="mix-blend-mode:multiply" opacity="0.62" d="M42.8329 41.8985L24.1056 55.6996C9.39321 56.0812 20.0945 44.3674 20.0945 44.3674L24.4366 41.4662C26.7381 51.6924 36.61 43.7365 39.702 41.291C40.7807 40.4381 41.9255 40.8821 42.8329 41.8985Z" fill="url(#paint1_linear_0_1)"/>
<path d="M55.1812 54.6H42.7857L31.022 23.439L37.7859 6.51822L55.1812 54.6Z" fill="#694AD9"/>
<path d="M37.786 6.5C34.1356 15.6274 26.9428 33.6318 23.28 42.7981C20.8724 48.3205 18.6206 53.1892 24.1055 55.6996C14.4771 61.7456 5.09512 57.3825 9.0154 48.5225C13.0281 37.4297 20.164 17.7139 24.2225 6.5H37.786Z" fill="#8D44F2"/>
<path style="mix-blend-mode:multiply" opacity="0.62" d="M34.9766 32.4961L37.7859 6.5L31.022 23.4208L34.9766 32.4961Z" fill="url(#paint2_linear_0_1)"/>
<path d="M24.1056 55.6996C14.4758 61.7464 5.09599 57.3815 9.01546 48.5225C9.01751 48.512 10.5283 44.3491 10.5304 44.3363C13.2486 46.6494 17.0338 49.5623 23.2801 42.798C20.825 48.4478 18.6445 53.1583 24.1056 55.6996Z" fill="#694AD9"/>
<path style="mix-blend-mode:overlay" opacity="0.42" d="M37.7859 6.5L20.5908 16.5321L24.223 6.5H37.7859Z" fill="url(#paint3_linear_0_1)"/>
<path d="M81.8597 43.4646C81.8597 43.5675 81.8165 43.6195 81.7302 43.6195C81.3842 43.6195 80.8489 43.6022 80.1242 43.5675C79.3638 43.5332 78.8198 43.5159 78.4922 43.5155C78.0606 43.5155 77.534 43.5329 76.9123 43.5675C76.3252 43.6031 75.8592 43.6195 75.5139 43.6195C75.4447 43.6195 75.4098 43.5675 75.4098 43.4646C75.4098 43.3605 75.4447 43.3085 75.5139 43.3085C75.844 43.3282 76.1746 43.2798 76.4851 43.1663C76.5804 43.1226 76.6601 43.0508 76.7133 42.9604C76.7666 42.8701 76.7908 42.7656 76.7828 42.661C76.7088 42.1396 76.5328 41.6379 76.2648 41.1846L71.0071 30.7985L72.276 28.5705L67.1217 39.9417C66.9121 40.3791 66.7975 40.8559 66.7853 41.3407C66.7717 41.6175 66.8245 41.8935 66.9394 42.1457C67.0542 42.3979 67.2277 42.619 67.4454 42.7905C67.9611 43.1591 68.5866 43.3418 69.2196 43.3085C69.3059 43.3085 69.3491 43.3605 69.3491 43.4646C69.3491 43.5675 69.3059 43.6195 69.2196 43.6195C68.9092 43.6195 68.4598 43.603 67.8726 43.5675C67.2163 43.5332 66.6465 43.5159 66.1632 43.5155C65.6973 43.5155 65.1361 43.5329 64.4798 43.5675C63.8926 43.6031 63.4178 43.6195 63.0554 43.6195C62.9862 43.6195 62.9519 43.5675 62.9519 43.4646C62.9519 43.3605 62.9862 43.3085 63.0554 43.3085C63.4808 43.3231 63.902 43.2203 64.2729 43.0114C64.6749 42.7338 65.0109 42.371 65.2567 41.9488C65.6983 41.222 66.0878 40.4647 66.4222 39.6827L72.043 27.3276C72.0773 27.2756 72.1547 27.2502 72.276 27.2502C72.4144 27.2502 72.4918 27.2756 72.5089 27.3276L78.9842 40.0712C79.39 40.9699 79.8939 41.821 80.4867 42.609C80.6291 42.8105 80.8146 42.9779 81.0296 43.0989C81.2447 43.2198 81.484 43.2915 81.7302 43.3085C81.8165 43.3085 81.8597 43.3605 81.8597 43.4646ZM67.9767 36.9633H75.4358L75.6174 37.6882H67.5883L67.9767 36.9633Z" fill="#26201B"/>
<path d="M94.9264 27.3403C95.6128 27.4311 96.2865 27.6006 96.9342 27.8456C97.0534 27.8728 97.1589 27.9417 97.2319 28.0398C97.2865 28.1668 97.3173 28.3028 97.3226 28.441L97.6591 32.0414C97.6591 32.0934 97.6159 32.1277 97.5296 32.1455C97.4951 32.157 97.4576 32.1555 97.4241 32.1412C97.3907 32.1269 97.3636 32.1009 97.348 32.068C96.9697 30.8143 96.2527 29.6892 95.2762 28.8167C94.3688 28.0622 93.2186 27.6621 92.0389 27.6907C90.9176 27.6745 89.8187 28.0043 88.8917 28.6352C87.9273 29.3159 87.1734 30.2537 86.7157 31.3418C86.164 32.6432 85.8948 34.047 85.926 35.4602C85.8955 36.8969 86.1736 38.3234 86.7417 39.6433C87.2174 40.7606 87.9984 41.7211 88.9952 42.4147C89.9713 43.0675 91.1237 43.4064 92.2978 43.3859C93.3817 43.4211 94.444 43.0777 95.3021 42.4147C96.2919 41.5271 97.0783 40.4362 97.6076 39.2167C97.6241 39.1647 97.6762 39.1469 97.7625 39.1647C97.8488 39.1825 97.892 39.2167 97.892 39.2675L97.5035 42.4794C97.4879 42.6177 97.453 42.7532 97.4 42.8819C97.3245 42.9713 97.2259 43.0385 97.115 43.0761C95.5708 43.6374 93.9409 43.9265 92.2978 43.9305C90.5865 43.9595 88.8908 43.601 87.3377 42.8819C85.9436 42.2383 84.7554 41.2205 83.9055 39.9416C83.0716 38.6644 82.6386 37.167 82.662 35.6417C82.6383 34.0827 83.0852 32.5528 83.9443 31.2516C84.8228 29.9445 86.0407 28.9013 87.4673 28.234C89.024 27.4947 90.7296 27.1225 92.4528 27.146C93.2811 27.1473 94.1081 27.2123 94.9264 27.3403ZM92.1163 44.4485C92.1103 44.7556 92.196 45.0575 92.3626 45.3156C92.5683 45.6033 92.8388 45.8386 93.1522 46.0024C93.5467 46.2327 93.901 46.5255 94.2015 46.8695C94.46 47.1967 94.5931 47.6056 94.5766 48.0223C94.5787 48.3763 94.5099 48.7272 94.3743 49.0542C94.2387 49.3812 94.039 49.6778 93.787 49.9265C93.4685 50.2171 93.0939 50.4394 92.6863 50.5797C92.2787 50.7201 91.8466 50.7756 91.4168 50.7428C90.1219 50.7428 89.4744 50.3281 89.4744 49.4987C89.4759 49.3671 89.5043 49.2372 89.5578 49.1169C89.6112 48.9966 89.6887 48.8885 89.7854 48.7992C89.8787 48.7008 89.9912 48.6226 90.1158 48.5693C90.2405 48.516 90.3748 48.4889 90.5103 48.4894C90.6357 48.4767 90.7624 48.4895 90.8827 48.5273C91.003 48.5651 91.1143 48.627 91.2098 48.7091C91.3681 48.8929 91.4831 49.1098 91.5463 49.3439C91.6075 49.5555 91.7087 49.7533 91.8446 49.9266C91.9264 50.0002 92.023 50.0556 92.1278 50.0891C92.2326 50.1225 92.3434 50.1334 92.4527 50.1208C92.8323 50.1208 93.0223 49.9135 93.0227 49.4988C93.0217 49.0472 92.8506 48.6125 92.5435 48.2813C92.053 47.7914 91.4894 47.3807 90.8728 47.0638C90.8039 47.0474 90.743 47.0075 90.7004 46.951C90.6579 46.8944 90.6365 46.8247 90.6398 46.7541C90.6452 46.61 90.6804 46.4686 90.7433 46.3389C91.0023 45.7181 91.2786 45.0017 91.5723 44.1896C91.6527 44.0125 91.722 43.8306 91.7799 43.645L92.2198 43.6716C92.1514 43.925 92.1166 44.1861 92.1163 44.4485Z" fill="#26201B"/>
<path d="M104.225 42.8032C102.993 42.0737 101.989 41.0156 101.324 39.7475C100.639 38.4512 100.288 37.005 100.301 35.539C100.255 33.9111 100.727 32.3106 101.648 30.9673C102.521 29.718 103.716 28.7287 105.106 28.1045C106.458 27.4779 107.929 27.1509 109.419 27.146C110.94 27.1142 112.44 27.5139 113.744 28.2988C114.956 29.0349 115.945 30.0868 116.606 31.3419C117.264 32.5777 117.607 33.9571 117.603 35.3574C117.615 36.8889 117.183 38.3911 116.36 39.6827C115.538 40.9889 114.391 42.0596 113.032 42.7905C111.647 43.5494 110.091 43.9419 108.512 43.9306C107.006 43.9572 105.523 43.567 104.225 42.8032ZM111.97 42.4414C112.791 41.8085 113.416 40.9546 113.77 39.9798C114.229 38.7417 114.449 37.4277 114.417 36.1077C114.441 34.6549 114.195 33.2103 113.692 31.8471C113.278 30.6921 112.552 29.6747 111.594 28.9082C110.676 28.1986 109.542 27.8237 108.382 27.8456C107.677 27.812 106.975 27.9571 106.341 28.2673C105.707 28.5776 105.162 29.043 104.756 29.6204C103.828 31.1016 103.384 32.8353 103.487 34.5804C103.462 36.1124 103.721 37.6357 104.251 39.0733C104.673 40.268 105.395 41.334 106.349 42.1684C107.187 42.8925 108.259 43.2885 109.367 43.2831C110.303 43.293 111.217 42.9975 111.97 42.4414Z" fill="#26201B"/>
<path d="M133.027 28.5451C132.816 28.2801 132.545 28.069 132.236 27.9293C131.928 27.7896 131.59 27.7252 131.252 27.7415C131.218 27.7415 131.2 27.6907 131.2 27.5866C131.2 27.4825 131.218 27.4317 131.252 27.4317L132.496 27.4571C133.151 27.4914 133.678 27.5087 134.075 27.5091C134.403 27.5091 134.879 27.4913 135.5 27.4571L136.692 27.4317C136.726 27.4317 136.743 27.4825 136.743 27.5866C136.743 27.6907 136.726 27.7415 136.692 27.7415C136.382 27.7307 136.074 27.7988 135.798 27.9394C135.522 28.0799 135.285 28.2883 135.111 28.5451C134.698 29.2021 134.499 29.9713 134.541 30.7464V37.9472C134.565 39.0618 134.288 40.1622 133.739 41.1325C133.208 42.0439 132.42 42.7783 131.473 43.2437C130.42 43.7535 129.262 44.0067 128.092 43.9825C126.92 44.0054 125.759 43.7569 124.699 43.2564C123.737 42.7937 122.932 42.0604 122.382 41.1465C121.805 40.1619 121.513 39.0361 121.54 37.8952V29.529C121.559 29.144 121.51 28.7586 121.397 28.3902C121.353 28.2732 121.284 28.1674 121.194 28.0801C121.105 27.9928 120.997 27.9262 120.879 27.8849C120.497 27.7715 120.099 27.723 119.701 27.7414C119.649 27.7414 119.623 27.6907 119.623 27.5866C119.623 27.4824 119.649 27.4317 119.701 27.4317L121.073 27.4571C121.868 27.4913 122.498 27.5087 122.964 27.5091C123.482 27.5091 124.138 27.4917 124.932 27.4571L126.254 27.4317C126.305 27.4317 126.331 27.4824 126.331 27.5866C126.331 27.6907 126.305 27.7414 126.254 27.7414C125.854 27.7213 125.455 27.7742 125.074 27.8976C124.955 27.9441 124.847 28.0154 124.758 28.1069C124.669 28.1985 124.6 28.308 124.556 28.4283C124.444 28.8018 124.396 29.1915 124.414 29.581V36.9887C124.287 38.6029 124.716 40.212 125.632 41.5476C126.053 42.0427 126.583 42.4336 127.181 42.6897C127.778 42.9458 128.427 43.0603 129.076 43.0241C129.698 43.0582 130.321 42.9591 130.901 42.7334C131.482 42.5077 132.008 42.1605 132.444 41.7152C133.316 40.6706 133.752 39.3302 133.662 37.9726V30.7464C133.706 29.9619 133.482 29.1856 133.027 28.5451Z" fill="#26201B"/>
<path d="M148.89 28.2213C149.298 28.4766 149.633 28.8346 149.86 29.2597C150.088 29.6847 150.199 30.1619 150.185 30.6436C150.193 31.5994 149.899 32.5333 149.343 33.3109C148.783 34.1047 148.03 34.7423 147.154 35.1631C146.277 35.5986 145.311 35.8246 144.332 35.8233C143.658 35.8233 143.183 35.8148 142.906 35.7979V41.521C142.889 41.9142 142.932 42.3079 143.036 42.6877C143.075 42.8036 143.142 42.9085 143.23 42.9939C143.317 43.0792 143.424 43.1427 143.541 43.179C143.934 43.2826 144.34 43.3262 144.746 43.3085C144.78 43.3085 144.798 43.3605 144.798 43.4646C144.798 43.5674 144.78 43.6195 144.746 43.6195C144.176 43.6195 143.727 43.611 143.399 43.5941L141.431 43.5674L139.54 43.5941C139.194 43.6106 138.728 43.619 138.141 43.6195C138.09 43.6195 138.063 43.5675 138.063 43.4646C138.063 43.3605 138.09 43.3085 138.141 43.3085C138.546 43.3263 138.953 43.2826 139.345 43.179C139.465 43.1404 139.574 43.0747 139.664 42.9871C139.753 42.8994 139.822 42.7922 139.863 42.6737C139.975 42.3002 140.023 41.9105 140.005 41.521V29.529C140.023 29.1449 139.979 28.7606 139.876 28.3902C139.834 28.2717 139.766 28.1645 139.676 28.0768C139.586 27.9892 139.477 27.9235 139.358 27.8849C138.972 27.7724 138.569 27.7239 138.167 27.7414C138.132 27.7414 138.115 27.6907 138.115 27.5866C138.115 27.4824 138.132 27.4317 138.167 27.4317L139.54 27.4571C140.334 27.4913 140.965 27.5087 141.431 27.5091C142.018 27.5091 142.63 27.4832 143.269 27.4316C143.494 27.4138 143.775 27.3973 144.111 27.3796C144.448 27.3619 144.823 27.353 145.239 27.353C146.514 27.2783 147.784 27.5803 148.89 28.2213ZM146.611 28.7C146.399 28.4327 146.126 28.2204 145.815 28.0807C145.504 27.9411 145.164 27.8783 144.823 27.8976C144.301 27.8489 143.778 27.9865 143.347 28.2861C143.185 28.458 143.062 28.6625 142.986 28.8858C142.91 29.1092 142.883 29.3462 142.906 29.581V35.0717C143.404 35.1474 143.906 35.1822 144.409 35.1758C144.811 35.2139 145.215 35.1576 145.59 35.0114C145.966 34.8653 146.302 34.6333 146.571 34.3341C147.079 33.5273 147.311 32.5775 147.233 31.6275C147.329 30.6111 147.112 29.5896 146.611 28.7ZM148.605 41.4562C147.209 39.516 145.913 37.5063 144.721 35.4348L147.103 34.7099C148.535 36.8846 149.731 38.5854 150.69 39.8122C151.423 40.8066 152.281 41.703 153.242 42.4794C153.857 42.9856 154.621 43.2767 155.418 43.3085C155.452 43.3085 155.47 43.3605 155.47 43.4646C155.47 43.5674 155.452 43.6195 155.418 43.6195H150.807C150.409 43.6195 149.676 42.8984 148.605 41.4562Z" fill="#26201B"/>
<path d="M156.142 43.4646C156.142 43.3605 156.169 43.3085 156.22 43.3085C156.626 43.3263 157.032 43.2827 157.425 43.179C157.543 43.1414 157.651 43.0759 157.739 42.988C157.827 42.9 157.892 42.7923 157.93 42.6737C158.032 42.2984 158.076 41.9096 158.059 41.521V29.529C158.077 29.1449 158.033 28.7606 157.93 28.3902C157.888 28.2717 157.82 28.1645 157.73 28.0768C157.64 27.9892 157.531 27.9235 157.412 27.8849C157.025 27.7723 156.622 27.7238 156.22 27.7414C156.169 27.7414 156.142 27.6907 156.142 27.5866C156.142 27.4824 156.169 27.4317 156.22 27.4317H167.203C167.375 27.4317 167.462 27.5091 167.462 27.664L167.514 31.1095C167.514 31.1438 167.465 31.1704 167.371 31.1869C167.276 31.2047 167.219 31.1869 167.203 31.1349C167.004 30.2549 166.51 29.4692 165.804 28.9082C165.041 28.3929 164.133 28.1382 163.214 28.182H162.437C162.028 28.1476 161.621 28.2681 161.297 28.5197C161.167 28.6574 161.068 28.8207 161.006 28.9992C160.943 29.1777 160.919 29.3673 160.935 29.5557V41.4182C160.904 41.8105 161.004 42.2018 161.219 42.5315C161.331 42.6589 161.472 42.7581 161.629 42.8212C161.787 42.8843 161.957 42.9094 162.126 42.8946H162.98C164.118 42.9502 165.247 42.6613 166.219 42.0656C167.085 41.4357 167.714 40.5323 168.005 39.5012C168.005 39.4669 168.04 39.4492 168.109 39.4492C168.159 39.4485 168.208 39.4621 168.251 39.4885C168.294 39.5139 168.316 39.5355 168.316 39.5533C168.152 40.7725 168.066 42.0009 168.057 43.2311C168.066 43.3365 168.039 43.442 167.979 43.5294C167.937 43.5649 167.887 43.5912 167.833 43.6067C167.78 43.6222 167.724 43.6266 167.668 43.6196H156.22C156.169 43.6195 156.142 43.5674 156.142 43.4646ZM165.402 36.1724C164.706 35.7245 163.885 35.5114 163.059 35.5643H159.561V34.8394H163.084C163.886 34.8875 164.685 34.7079 165.39 34.3214C165.641 34.173 165.847 33.9602 165.988 33.7051C166.129 33.45 166.2 33.1618 166.192 32.8704C166.192 32.8184 166.24 32.7929 166.336 32.7929C166.43 32.7929 166.478 32.8183 166.478 32.8704L166.451 35.2013L166.478 36.4454C166.512 37.0319 166.529 37.4978 166.53 37.8431C166.53 37.8787 166.478 37.8951 166.374 37.8951C166.271 37.8951 166.219 37.8786 166.219 37.8431C166.231 37.519 166.162 37.1969 166.02 36.9055C165.878 36.6141 165.665 36.3622 165.402 36.1724Z" fill="#26201B"/>
<path d="M174.441 31.705C174.762 32.1899 175.161 32.6188 175.621 32.9745C176.087 33.3363 176.717 33.7764 177.511 34.2948C178.226 34.7431 178.917 35.2274 179.583 35.7459C180.109 36.1692 180.556 36.6818 180.905 37.2604C181.274 37.8829 181.462 38.596 181.448 39.3196C181.462 40.1741 181.208 41.0116 180.723 41.7152C180.217 42.4335 179.522 42.9984 178.716 43.3478C177.815 43.7459 176.838 43.9447 175.853 43.9305C175.036 43.9229 174.223 43.8142 173.432 43.6068C172.814 43.4948 172.226 43.252 171.709 42.8946C171.636 42.8391 171.571 42.7738 171.515 42.7004C171.465 42.6095 171.442 42.5057 171.45 42.402L171.373 38.2836V38.2582C171.373 38.1897 171.416 38.1503 171.503 38.1414C171.589 38.1325 171.64 38.163 171.657 38.2316C172.175 39.2853 172.629 40.1401 173.017 40.796C173.407 41.4542 173.906 42.0411 174.494 42.5315C175.057 43.0211 175.781 43.2884 176.527 43.2831C177.145 43.3074 177.751 43.1097 178.236 42.7258C178.483 42.4788 178.672 42.1798 178.789 41.8505C178.905 41.5213 178.947 41.1701 178.91 40.8227C178.926 40.1244 178.751 39.4349 178.405 38.8283C178.083 38.2762 177.667 37.7851 177.175 37.3772C176.535 36.868 175.87 36.3925 175.18 35.9528C174.511 35.5327 173.867 35.0745 173.251 34.5804C172.784 34.1912 172.386 33.7269 172.073 33.2068C171.734 32.6354 171.563 31.9803 171.58 31.3165C171.555 30.4738 171.835 29.6505 172.37 28.9983C172.91 28.3586 173.613 27.8755 174.403 27.5993C175.242 27.2955 176.127 27.142 177.019 27.1461C177.636 27.1477 178.251 27.2042 178.858 27.3149C179.371 27.3973 179.874 27.5318 180.36 27.7161C180.481 27.7602 180.589 27.8361 180.671 27.9357C180.726 28.0253 180.753 28.1291 180.748 28.2341V32.0414C180.748 32.0934 180.705 32.1328 180.619 32.1582C180.533 32.1836 180.481 32.1709 180.464 32.1188L180.257 31.6275C179.88 30.639 179.371 29.7066 178.741 28.8561C178.461 28.4836 178.094 28.1851 177.672 27.9865C177.25 27.7878 176.786 27.695 176.32 27.7161C175.699 27.6913 175.092 27.9043 174.623 28.3115C174.394 28.5359 174.217 28.8072 174.103 29.1068C173.989 29.4064 173.941 29.7272 173.963 30.047C173.953 30.635 174.12 31.2125 174.441 31.705Z" fill="#26201B"/>
<path d="M88.8469 15.8209H91.612C92.9526 15.8209 93.8159 16.5585 93.8159 17.7125C93.8325 18.0699 93.7317 18.4229 93.529 18.7176C93.3262 19.0124 93.0326 19.2328 92.693 19.3451C93.0847 19.4403 93.4313 19.6683 93.6739 19.9902C93.9164 20.3122 94.04 20.7083 94.0234 21.111C94.0234 22.3387 93.1399 23.0966 91.7262 23.0966H88.8469V15.8209ZM91.591 19.095C92.5889 19.095 93.1709 18.5961 93.1709 17.7544C93.1709 16.9229 92.5889 16.4138 91.6018 16.4138H89.4811V19.095H91.591ZM91.7059 22.5049C92.7552 22.5049 93.3792 21.9743 93.3792 21.0907C93.3792 20.1969 92.7551 19.6777 91.6742 19.6777H89.4811V22.5049H91.7059Z" fill="black"/>
<path d="M98.2369 15.8209H98.8399L101.854 23.0966H101.189L100.43 21.2672H96.6468L95.8984 23.0966H95.2224L98.2369 15.8209ZM100.191 20.6857L98.5384 16.6842L96.8962 20.6858L100.191 20.6857Z" fill="black"/>
<path d="M103.688 15.8209H104.281L108.709 22.006V15.8209H109.332V23.0966H108.74L104.312 16.9026V23.0966H103.688L103.688 15.8209Z" fill="black"/>
<path d="M111.593 19.4594C111.567 18.9643 111.645 18.4694 111.82 18.0058C111.996 17.5422 112.265 17.1199 112.612 16.7655C112.959 16.4111 113.375 16.1323 113.834 15.9466C114.294 15.7608 114.787 15.6722 115.282 15.6863C116.059 15.6619 116.822 15.8927 117.454 16.3432C118.087 16.7938 118.554 17.4393 118.785 18.1809H118.12C117.906 17.6117 117.517 17.1249 117.009 16.7905C116.501 16.4561 115.9 16.2913 115.293 16.3198C114.881 16.3072 114.471 16.3804 114.089 16.5348C113.707 16.6892 113.361 16.9215 113.073 17.2168C112.786 17.5121 112.563 17.8639 112.419 18.25C112.275 18.6361 112.213 19.0479 112.237 19.4593C112.213 19.8706 112.275 20.2823 112.419 20.6683C112.564 21.0542 112.786 21.406 113.074 21.7012C113.361 21.9963 113.707 22.2285 114.089 22.3828C114.471 22.5371 114.881 22.6103 115.293 22.5976C115.919 22.6269 116.538 22.4536 117.059 22.1036C117.579 21.7536 117.973 21.2453 118.183 20.6539H118.848C118.575 21.5019 118.007 22.2237 117.246 22.6879C116.486 23.1521 115.584 23.3278 114.705 23.1831C113.826 23.0383 113.029 22.5828 112.457 21.8993C111.886 21.2159 111.579 20.3501 111.593 19.4594Z" fill="black"/>
<path d="M120.557 19.4593C120.555 18.9654 120.651 18.4759 120.838 18.0191C121.026 17.5622 121.302 17.1469 121.651 16.7969C121.999 16.447 122.414 16.1693 122.87 15.9799C123.326 15.7904 123.815 15.6929 124.309 15.6929C124.803 15.6929 125.292 15.7904 125.748 15.9799C126.205 16.1693 126.619 16.447 126.967 16.7969C127.316 17.1469 127.592 17.5622 127.78 18.0191C127.968 18.4759 128.063 18.9654 128.062 19.4593C128.063 19.9533 127.968 20.4428 127.78 20.8996C127.592 21.3565 127.316 21.7718 126.967 22.1218C126.619 22.4717 126.205 22.7494 125.748 22.9388C125.292 23.1283 124.803 23.2258 124.309 23.2258C123.815 23.2258 123.326 23.1283 122.87 22.9388C122.414 22.7494 121.999 22.4717 121.651 22.1218C121.302 21.7718 121.026 21.3565 120.838 20.8996C120.651 20.4428 120.555 19.9533 120.557 19.4593ZM124.309 22.5976C124.725 22.6178 125.142 22.5503 125.53 22.3995C125.919 22.2486 126.272 22.0178 126.566 21.722C126.86 21.4262 127.089 21.0719 127.237 20.6822C127.386 20.2924 127.451 19.8758 127.428 19.4593C127.432 19.0481 127.354 18.6401 127.199 18.2591C127.044 17.8781 126.816 17.5315 126.526 17.2393C126.237 16.9472 125.892 16.7153 125.513 16.557C125.133 16.3987 124.726 16.3173 124.314 16.3173C123.903 16.3173 123.496 16.3987 123.116 16.557C122.737 16.7153 122.392 16.9472 122.103 17.2393C121.813 17.5315 121.585 17.8781 121.43 18.2591C121.275 18.6401 121.197 19.0481 121.201 19.4593C121.178 19.8749 121.242 20.2907 121.39 20.6799C121.537 21.0691 121.765 21.423 122.058 21.7187C122.351 22.0144 122.702 22.2455 123.09 22.3969C123.478 22.5483 123.893 22.6167 124.309 22.5976Z" fill="black"/>
<path d="M133.234 15.8209H135.53C136.026 15.7765 136.525 15.839 136.995 16.0041C137.464 16.1692 137.893 16.4331 138.251 16.778C138.61 17.1229 138.891 17.5407 139.074 18.0033C139.257 18.4659 139.339 18.9624 139.315 19.4594C139.339 19.9563 139.257 20.4527 139.074 20.9152C138.89 21.3776 138.61 21.7953 138.251 22.1401C137.892 22.4848 137.464 22.7486 136.994 22.9136C136.525 23.0786 136.026 23.141 135.53 23.0966H133.234V15.8209ZM135.53 22.4936C135.943 22.5322 136.359 22.4811 136.751 22.3437C137.142 22.2064 137.499 21.9861 137.797 21.6979C138.095 21.4097 138.328 21.0604 138.478 20.6741C138.629 20.2877 138.694 19.8733 138.67 19.4594C138.693 19.0439 138.626 18.6284 138.473 18.2412C138.321 17.854 138.087 17.5043 137.787 17.216C137.487 16.9277 137.128 16.7077 136.735 16.571C136.342 16.4343 135.924 16.3841 135.51 16.4239H133.867V22.4935L135.53 22.4936Z" fill="black"/>
<path d="M141.065 19.4594C141.063 18.9649 141.158 18.4748 141.345 18.0172C141.533 17.5596 141.809 17.1436 142.157 16.793C142.506 16.4424 142.921 16.1642 143.377 15.9744C143.834 15.7846 144.323 15.6868 144.818 15.6868C145.312 15.6868 145.802 15.7846 146.259 15.9744C146.715 16.1642 147.13 16.4424 147.479 16.793C147.827 17.1436 148.103 17.5596 148.291 18.0172C148.478 18.4748 148.573 18.9649 148.571 19.4594C148.573 19.9539 148.478 20.444 148.291 20.9016C148.103 21.3591 147.827 21.7752 147.479 22.1258C147.13 22.4763 146.715 22.7545 146.259 22.9444C145.802 23.1342 145.312 23.2319 144.818 23.2319C144.323 23.2319 143.834 23.1342 143.377 22.9444C142.921 22.7545 142.506 22.4763 142.157 22.1258C141.809 21.7752 141.533 21.3591 141.345 20.9016C141.158 20.444 141.063 19.9539 141.065 19.4594ZM144.818 22.5977C145.234 22.6178 145.651 22.5502 146.039 22.3993C146.428 22.2484 146.781 22.0176 147.075 21.7218C147.369 21.426 147.597 21.0717 147.746 20.682C147.894 20.2923 147.959 19.8758 147.936 19.4594C147.939 19.0484 147.861 18.6408 147.707 18.26C147.552 17.8793 147.323 17.5331 147.034 17.2412C146.744 16.9494 146.4 16.7177 146.02 16.5596C145.641 16.4015 145.234 16.3201 144.823 16.3201C144.412 16.3201 144.005 16.4015 143.626 16.5596C143.246 16.7177 142.902 16.9494 142.613 17.2412C142.323 17.5331 142.094 17.8793 141.94 18.26C141.785 18.6408 141.707 19.0484 141.71 19.4594C141.687 19.875 141.751 20.2908 141.899 20.6801C142.046 21.0693 142.274 21.4232 142.567 21.719C142.86 22.0148 143.211 22.2458 143.599 22.3971C143.987 22.5485 144.402 22.6168 144.818 22.5977Z" fill="black"/>
<path d="M150.384 20.9346H151.008C151.069 22.006 151.912 22.6294 153.169 22.6294C154.365 22.6294 155.103 22.0987 155.103 21.257C155.103 20.4978 154.51 20.051 153.045 19.7298C151.257 19.3134 150.498 18.7104 150.498 17.6186C150.498 16.4544 151.444 15.6864 152.993 15.6864C154.593 15.6864 155.571 16.4963 155.622 17.9004H155C154.946 16.8708 154.209 16.2881 152.993 16.2881C151.818 16.2881 151.133 16.8188 151.133 17.6186C151.133 18.3473 151.673 18.7942 153.201 19.137C155.04 19.5636 155.747 20.2072 155.747 21.2469C155.747 22.4631 154.75 23.2324 153.169 23.2324C152.833 23.2795 152.49 23.2561 152.164 23.1637C151.837 23.0714 151.533 22.9122 151.271 22.6961C151.009 22.48 150.795 22.2118 150.642 21.9086C150.489 21.6053 150.401 21.2737 150.384 20.9346Z" fill="black"/>
</g>
<defs>
<linearGradient id="paint0_linear_0_1" x1="16.3362" y1="39.3835" x2="53.616" y2="39.3835" gradientUnits="userSpaceOnUse">
<stop stop-color="#3D14B4"/>
<stop offset="1" stop-color="#D93DE3"/>
</linearGradient>
<linearGradient id="paint1_linear_0_1" x1="25.5163" y1="37.9413" x2="31.5088" y2="51.5909" gradientUnits="userSpaceOnUse">
<stop stop-color="#C1272D"/>
<stop offset="0.99485" stop-color="#C1272D" stop-opacity="0"/>
</linearGradient>
<linearGradient id="paint2_linear_0_1" x1="29.8501" y1="4.62129" x2="40.3835" y2="28.614" gradientUnits="userSpaceOnUse">
<stop stop-color="#C1272D"/>
<stop offset="0.99485" stop-color="#C1272D" stop-opacity="0"/>
</linearGradient>
<linearGradient id="paint3_linear_0_1" x1="30.2998" y1="16.253" x2="26.6192" y2="0.562081" gradientUnits="userSpaceOnUse">
<stop stop-color="white"/>
<stop offset="1" stop-color="#D4536B" stop-opacity="0"/>
</linearGradient>
<clipPath id="clip0_0_1">
<rect width="1440" height="1024" fill="white" transform="translate(-100 -19)"/>
</clipPath>
</defs>
</svg>
