<svg width="25" height="18" viewBox="0 0 25 18" fill="none" xmlns="http://www.w3.org/2000/svg">
<path d="M25 2.04258C24.0604 2.38405 23.0668 2.60979 22.05 2.71276C23.1227 2.17591 23.9266 1.33134 24.3125 0.335718C23.3044 0.838419 22.201 1.1926 21.05 1.38287C20.2807 0.683973 19.2562 0.218747 18.1373 0.0601609C17.0183 -0.0984255 15.8682 0.0585975 14.8672 0.506603C13.8663 0.954609 13.0712 1.66826 12.6066 2.53562C12.1419 3.40299 12.0341 4.37501 12.3 5.29924C10.2618 5.21287 8.26805 4.76828 6.44832 3.99434C4.62859 3.22039 3.02356 2.13441 1.7375 0.806938C1.28642 1.46682 1.0494 2.21413 1.05 2.97455C1.0484 3.68073 1.25527 4.37629 1.65219 4.99929C2.04912 5.6223 2.62377 6.15341 3.325 6.54535C2.50997 6.52677 1.71236 6.34356 1 6.0113V6.06366C1.00611 7.05311 1.41999 8.01042 2.17164 8.77366C2.92329 9.53691 3.96657 10.0592 5.125 10.2523C4.67907 10.366 4.21609 10.4259 3.75 10.4303C3.42736 10.4271 3.10553 10.4026 2.7875 10.357C3.11739 11.2081 3.75578 11.952 4.61384 12.485C5.47191 13.018 6.50697 13.3137 7.575 13.3309C5.7715 14.5197 3.54485 15.1685 1.25 15.1739C0.832169 15.1751 0.41467 15.1541 0 15.1111C2.34304 16.3784 5.07352 17.0512 7.8625 17.0483C9.78712 17.0651 11.6964 16.7604 13.4789 16.152C15.2614 15.5437 16.8813 14.6439 18.244 13.5053C19.6067 12.3666 20.685 11.0119 21.4157 9.52022C22.1464 8.02857 22.515 6.42988 22.5 4.81754V4.26255C23.4809 3.64977 24.3268 2.89855 25 2.04258Z" fill="#3D3D3D"/>
</svg>
